<svg width="62" height="89" viewBox="0 0 62 89" fill="none" xmlns="http://www.w3.org/2000/svg">
<g clip-path="url(#clip0_37_41)">
<rect width="62" height="89" fill="#FFC107"/>
<path d="M51.1716 39.1234L51.1749 39.136C51.1804 39.1569 51.1889 39.1975 51.1889 39.3324C51.1889 40.1206 50.5369 40.7937 49.6779 40.7937H12.3221C11.4631 40.7937 10.8111 40.1206 10.8111 39.3324C10.8111 39.2569 10.8181 39.1833 10.8356 39.0957C11.0768 38.1688 12.1215 34.7305 15.0597 31.5249C17.9906 28.3272 22.8773 25.2778 31 25.2778C39.1227 25.2778 44.0093 28.3272 46.9403 31.5249C49.9085 34.7633 50.9444 38.2393 51.1716 39.1234ZM21.5444 33.0357C21.5444 32.2899 21.2426 31.5794 20.7129 31.0592C20.184 30.5398 19.4715 30.252 18.7333 30.252C17.9951 30.252 17.2826 30.5398 16.7537 31.0592C16.2241 31.5794 15.9222 32.2899 15.9222 33.0357C15.9222 33.7815 16.2241 34.492 16.7537 35.0122C17.2826 35.5316 17.9951 35.8194 18.7333 35.8194C19.4715 35.8194 20.184 35.5316 20.7129 35.0122C21.2426 34.492 21.5444 33.7815 21.5444 33.0357ZM43.2666 35.8194C44.0048 35.8194 44.7173 35.5316 45.2462 35.0122C45.7759 34.492 46.0778 33.7815 46.0778 33.0357C46.0778 32.2899 45.7759 31.5794 45.2462 31.0592C44.7173 30.5398 44.0048 30.252 43.2666 30.252C42.5285 30.252 41.816 30.5398 41.2871 31.0592C40.7573 31.5794 40.4555 32.2899 40.4555 33.0357C40.4555 33.7815 40.7573 34.492 41.2871 35.0122C41.816 35.5316 42.5285 35.8194 43.2666 35.8194ZM33.8111 30.0238C33.8111 29.278 33.5093 28.5675 32.9795 28.0473C32.4506 27.5279 31.7382 27.2401 31 27.2401C30.2618 27.2401 29.5493 27.5279 29.0205 28.0473C28.4907 28.5675 28.1889 29.278 28.1889 30.0238C28.1889 30.7696 28.4907 31.4801 29.0205 32.0003C29.5493 32.5197 30.2618 32.8075 31 32.8075C31.7382 32.8075 32.4506 32.5197 32.9795 32.0003C33.5093 31.4801 33.8111 30.7696 33.8111 30.0238ZM9.27777 49.6012C9.27777 47.8343 10.7443 46.3611 12.6 46.3611H49.4C51.2557 46.3611 52.7222 47.8343 52.7222 49.6012C52.7222 51.3681 51.2557 52.8412 49.4 52.8412H12.6C10.7443 52.8412 9.27777 51.3681 9.27777 49.6012ZM10.8111 58.6368C10.8111 58.5359 10.9072 58.4088 11.0667 58.4088H50.9333C51.0928 58.4088 51.1889 58.5359 51.1889 58.6368V60.1428C51.1889 62.738 49.0324 64.8889 46.3333 64.8889H15.6667C12.9676 64.8889 10.8111 62.738 10.8111 60.1428V58.6368Z" fill="#FFD704" stroke="black" stroke-width="2"/>
</g>
<defs>
<clipPath id="clip0_37_41">
<rect width="62" height="89" fill="white"/>
</clipPath>
</defs>
</svg>
